<svg width="12" height="12" viewBox="0 0 12 12" fill="none" xmlns="http://www.w3.org/2000/svg">
<path fill-rule="evenodd" clip-rule="evenodd" d="M0.343105 10.2426C-0.0474192 10.6331 -0.0474189 11.2663 0.343105 11.6568C0.73363 12.0473 1.36679 12.0473 1.75732 11.6568L5.99992 7.4142L10.2426 11.6569C10.6331 12.0474 11.2663 12.0474 11.6568 11.6569C12.0473 11.2664 12.0473 10.6332 11.6568 10.2427L7.41413 5.99999L11.6568 1.75731C12.0473 1.36678 12.0473 0.733616 11.6568 0.343092C11.2663 -0.0474323 10.6331 -0.0474326 10.2426 0.343092L5.99992 4.58577L1.75732 0.343174C1.36679 -0.0473504 0.73363 -0.0473504 0.343105 0.343174C-0.0474192 0.733699 -0.0474189 1.36686 0.343105 1.75739L4.58571 5.99999L0.343105 10.2426Z" fill="#2B3350"/>
</svg>
