<svg width="24" height="28" fill="none" xmlns="http://www.w3.org/2000/svg"><path d="M22.22 19.96a4.077 4.077 0 01-1.634-1.443c-2.694-4.114.36-7.16 2.42-8.61a1.88 1.88 0 00.716-2.096l-.708-2.284a1.878 1.878 0 00-1.761-1.322c-2.936-.058-4.921-1.875-5.48-3.102A1.884 1.884 0 0014.063 0H9.937C9.203 0 8.53.433 8.226 1.103c-.464 1.022-2.324 3.04-5.48 3.102a1.878 1.878 0 00-1.76 1.322L.278 7.811a1.877 1.877 0 00.716 2.095c2.06 1.45 5.113 4.497 2.42 8.611a4.077 4.077 0 01-1.635 1.442 1.877 1.877 0 00-.65 2.812l1.477 1.95c.55.726 1.535.955 2.344.544 1.803-.916 4.365-1.258 6.331 2.311a.821.821 0 001.438 0c1.966-3.57 4.528-3.227 6.331-2.311.808.41 1.794.182 2.344-.544l1.477-1.95c.712-.94.394-2.29-.65-2.812zM12 3.335a2.464 2.464 0 012.46 2.461A2.464 2.464 0 0112 8.258a2.464 2.464 0 01-2.461-2.461 2.464 2.464 0 012.46-2.461zm0 18.047a.82.82 0 110-1.641.82.82 0 010 1.641zm3.502-3.281H8.498a.82.82 0 010-1.64h7.004a.82.82 0 010 1.64zm0-3.281H8.498a.82.82 0 010-1.641h7.004a.82.82 0 010 1.64zm0-3.282H8.498a.82.82 0 010-1.64h7.004a.82.82 0 010 1.64zM12 6.617a.821.821 0 000-1.64.821.821 0 000 1.64z" fill="#2B3350"/></svg>